# xmcd
#
# Track frame offsets:
#	180
#	12684
#	25864
#	36446
#	49942
#	60911
#	69455
#	83545
#	99174
#	110408
#	124195
#	134783
#	142877
#	156142
#
# Disc length: 2207 seconds
#
# Revision: 0
# Processed by: cddbd v1.4PL0 Copyright (c) Steve Scherf et al.
# Submitted via: EasyCDDAExtractor 4.6.9.1
#
DISCID=ba089d0e
DTITLE=Louvin Brothers - Christmas with the Louvin Brothers
DYEAR=1900
DGENRE=Country
TTITLE0=O Come All Ye Faithful
TTITLE1=Silent Night
TTITLE2=Away in a Manger
TTITLE3=Good Christian Men Rejoice
TTITLE4=While Shepards Watched Their Flocks
TTITLE5=Deck the Halls
TTITLE6=It Came Upon a Midnight Clear
TTITLE7=The First Noel
TTITLE8=O Little Town of Bethlehem
TTITLE9=The Friendly Beasts
TTITLE10=Hark! The Hearald Angels Sing
TTITLE11=Joy to the World
TTITLE12=It's Christmas Time
TTITLE13=Santa's Big Parade
EXTD=
EXTT0=
EXTT1=
EXTT2=
EXTT3=
EXTT4=
EXTT5=
EXTT6=
EXTT7=
EXTT8=
EXTT9=
EXTT10=
EXTT11=
EXTT12=
EXTT13=
PLAYORDER=
